<?xml version="1.0" encoding="utf-8"?>
<!-- Generator: Adobe Illustrator 16.0.0, SVG Export Plug-In . SVG Version: 6.00 Build 0)  -->
<!DOCTYPE svg PUBLIC "-//W3C//DTD SVG 1.1//EN" "http://www.w3.org/Graphics/SVG/1.1/DTD/svg11.dtd">
<svg version="1.1" id="Layer_1" xmlns="http://www.w3.org/2000/svg" xmlns:xlink="http://www.w3.org/1999/xlink" x="0px" y="0px"
	 width="130px" height="30px" viewBox="0 0 130 30" enable-background="new 0 0 130 30" xml:space="preserve">
<g>
	<path fill="#FFFFFF" d="M13.7,14.8H5L3.2,19H0L8,0.4h2.8l8,18.7h-3.2L13.7,14.8z M12.7,12.2l-2.4-5.8c-0.4-1-0.9-2.4-0.9-2.4h0
		c0,0-0.5,1.4-0.9,2.4L6,12.2H12.7z"/>
	<path fill="#FFFFFF" d="M31.8,19l-4-6.7c-0.2,0-0.4,0-0.6,0H24V19h-3V0.4h6.2c4.5,0,7.2,2.4,7.2,6.1c0,2.6-1.4,4.5-3.8,5.4l4.5,7.2
		H31.8z M27.5,9.8c2.6,0,3.8-1.5,3.8-3.3c0-1.9-1.3-3.3-3.8-3.3H24v6.6H27.5z"/>
	<path fill="#FFFFFF" d="M51.9,5.7c-1.1-1.7-3.3-2.8-5.5-2.8c-3.9,0-6.7,2.8-6.7,6.8c0,4.1,2.9,6.8,6.7,6.8c2.5,0,4.8-1.3,5.9-3.3
		l3,0.8c-1.6,3.3-4.9,5.4-8.8,5.4c-5.4,0-9.8-4.1-9.8-9.7S40.9,0,46.3,0c3.7,0,6.9,1.9,8.6,4.9L51.9,5.7z"/>
	<path fill="#FFFFFF" d="M73.2,0.4V19h-3v-8.2H61V19h-3V0.4h3v7.7h9.2V0.4H73.2z"/>
	<path fill="#FFFFFF" d="M88.1,5.5c-0.4-2.3-2.4-3.6-4.7-3.6c-2.5,0-4.2,1.2-4.2,3c0,2.1,2.6,2.7,5.1,3.4c2.6,0.8,6.2,1.9,6.2,5.6
		c0,3.1-2.7,5.4-6.9,5.4c-4,0-6.6-2.3-7.2-5.5l2.1-0.6c0.3,2.2,2.1,4.1,5.1,4.1c2.8,0,4.5-1.5,4.5-3.4c0-2.7-3.3-3.3-5.9-4.1
		C80.2,9.3,77,8.3,77,5.1C77,2.2,79.8,0,83.5,0c3.4,0,6.1,2,6.7,5L88.1,5.5z"/>
	<path fill="#FFFFFF" d="M94.1,19V0.4h2.2V19H94.1z"/>
	<path fill="#FFFFFF" d="M114.2,0.4v2.1h-6.3V19h-2.2V2.4h-6.3V0.4H114.2z"/>
	<path fill="#FFFFFF" d="M130,17V19h-12.7V0.4h12.6v2.1h-10.4v5.8h8.3v1.9h-8.3V17H130z"/>
	<g>
		<path fill="#FFFFFF" d="M4.9,28.4h-3l-0.6,1.5H0.1l2.7-6.4h1l2.7,6.4H5.5L4.9,28.4z M4.5,27.5l-0.8-2c-0.1-0.3-0.3-0.8-0.3-0.8h0
			c0,0-0.2,0.5-0.3,0.8l-0.8,2H4.5z"/>
		<path fill="#FFFFFF" d="M11.8,29.9l-1.4-2.3c-0.1,0-0.1,0-0.2,0H9.2v2.3h-1v-6.4h2.1c1.6,0,2.5,0.8,2.5,2.1c0,0.9-0.5,1.6-1.3,1.9
			l1.5,2.5H11.8z M10.4,26.7c0.9,0,1.3-0.5,1.3-1.1c0-0.7-0.5-1.1-1.3-1.1H9.2v2.3H10.4z"/>
		<path fill="#FFFFFF" d="M19.8,25.3c-0.4-0.6-1.1-1-1.9-1c-1.3,0-2.3,1-2.3,2.3c0,1.4,1,2.3,2.3,2.3c0.9,0,1.7-0.5,2-1.1l1,0.3
			c-0.5,1.1-1.7,1.9-3.1,1.9c-1.9,0-3.4-1.4-3.4-3.3c0-1.9,1.5-3.3,3.4-3.3c1.3,0,2.4,0.7,2.9,1.7L19.8,25.3z"/>
		<path fill="#FFFFFF" d="M27.8,23.4v6.4h-1V27h-3.2v2.8h-1v-6.4h1v2.7h3.2v-2.7H27.8z"/>
		<path fill="#FFFFFF" d="M29.4,29.9v-6.4h1v6.4H29.4z"/>
		<path fill="#FFFFFF" d="M37.2,23.4v1h-2.1v5.5h-1v-5.5H32v-1H37.2z"/>
		<path fill="#FFFFFF" d="M43.3,28.9v1h-4.5v-6.4h4.5v1h-3.4v1.7h2.7V27h-2.7v1.9H43.3z"/>
		<path fill="#FFFFFF" d="M50.1,25.3c-0.4-0.6-1.1-1-1.9-1c-1.3,0-2.3,1-2.3,2.3c0,1.4,1,2.3,2.3,2.3c0.9,0,1.7-0.5,2-1.1l1,0.3
			c-0.5,1.1-1.7,1.9-3,1.9c-1.9,0-3.4-1.4-3.4-3.3c0-1.9,1.5-3.3,3.4-3.3c1.3,0,2.4,0.7,2.9,1.7L50.1,25.3z"/>
		<path fill="#FFFFFF" d="M58.1,23.4v1H56v5.5h-1v-5.5h-2.1v-1H58.1z"/>
		<path fill="#FFFFFF" d="M65.1,23.4v3.7c0,1.9-1,2.9-2.7,2.9s-2.7-1-2.7-2.9v-3.7h1v3.7c0,1.3,0.6,1.9,1.7,1.9
			c1.1,0,1.7-0.6,1.7-1.9v-3.7H65.1z"/>
		<path fill="#FFFFFF" d="M70.4,29.9L69,27.6c-0.1,0-0.1,0-0.2,0h-1.1v2.3h-1v-6.4h2.1c1.6,0,2.5,0.8,2.5,2.1c0,0.9-0.5,1.6-1.3,1.9
			l1.5,2.5H70.4z M69,26.7c0.9,0,1.3-0.5,1.3-1.1c0-0.7-0.5-1.1-1.3-1.1h-1.2v2.3H69z"/>
		<path fill="#FFFFFF" d="M77.7,28.9v1h-4.5v-6.4h4.5v1h-3.4v1.7h2.7V27h-2.7v1.9H77.7z"/>
		<path fill="#FFFFFF" d="M93.5,23.4l-2.1,6.4h-0.9l-1-3.2c-0.3-0.8-0.3-1.2-0.3-1.2h0c0,0-0.1,0.4-0.3,1.2l-1,3.2h-0.9l-2.1-6.4
			h1.1l1.2,3.9c0.2,0.6,0.3,1,0.3,1h0c0,0,0.1-0.4,0.3-1l1.1-3.1h0.9l1.1,3.1c0.2,0.6,0.3,1,0.3,1h0c0,0,0.1-0.4,0.3-1l1.2-3.9H93.5
			z"/>
		<path fill="#FFFFFF" d="M99.9,28.9v1h-4.5v-6.4h4.5v1h-3.4v1.7h2.7V27h-2.7v1.9H99.9z"/>
		<path fill="#FFFFFF" d="M104.4,23.4c1.1,0,1.9,0.7,1.9,1.6c0,0.6-0.5,1.2-1,1.3v0c0.6,0.1,1.4,0.8,1.4,1.6c0,1.1-0.8,1.9-2.2,1.9
			h-2.7v-6.4H104.4z M104.2,26.1c0.7,0,1.1-0.4,1.1-0.9c0-0.5-0.4-0.9-1.1-0.9h-1.3v1.8H104.2z M104.4,29c0.7,0,1.2-0.4,1.2-1.1
			c0-0.6-0.6-1.1-1.3-1.1h-1.5V29H104.4z"/>
		<path fill="#FFFFFF" d="M112.5,25.3c-0.2-0.7-0.8-1.1-1.5-1.1c-0.7,0-1.2,0.3-1.2,0.9c0,0.6,0.8,0.8,1.7,1.1
			c0.9,0.3,2.1,0.7,2.1,1.9c0,1.1-1,1.9-2.4,1.9c-1.4,0-2.3-0.8-2.6-1.9l1-0.3c0.1,0.7,0.7,1.3,1.6,1.3c0.8,0,1.3-0.4,1.3-1
			c0-0.8-1-1-1.9-1.3c-0.8-0.3-1.8-0.6-1.8-1.7c0-1,1-1.8,2.3-1.8c1.2,0,2.2,0.7,2.4,1.7L112.5,25.3z"/>
		<path fill="#FFFFFF" d="M115.4,29.9v-6.4h1v6.4H115.4z"/>
		<path fill="#FFFFFF" d="M123.6,23.4v1h-2.1v5.5h-1v-5.5h-2.1v-1H123.6z"/>
		<path fill="#FFFFFF" d="M130,28.9v1h-4.5v-6.4h4.5v1h-3.4v1.7h2.7V27h-2.7v1.9H130z"/>
	</g>
</g>
</svg>
