<?xml version="1.0" encoding="utf-8"?>
<!-- Generator: Adobe Illustrator 16.0.0, SVG Export Plug-In . SVG Version: 6.00 Build 0)  -->
<!DOCTYPE svg PUBLIC "-//W3C//DTD SVG 1.1//EN" "http://www.w3.org/Graphics/SVG/1.1/DTD/svg11.dtd">
<svg version="1.1" id="Layer_1" xmlns="http://www.w3.org/2000/svg" xmlns:xlink="http://www.w3.org/1999/xlink" x="0px" y="0px"
	 width="40px" height="40px" viewBox="0 0 40 40" enable-background="new 0 0 40 40" xml:space="preserve">
<g>
	<g>
		<g>
			<g>
				<path d="M31.6,24.8c-0.8-0.9-1.8-1.3-2.9-1.3c-1,0-2,0.4-2.9,1.3l-2.7,2.7c-0.2-0.1-0.4-0.2-0.7-0.3c-0.3-0.2-0.6-0.3-0.8-0.4
					c-2.5-1.6-4.8-3.7-7-6.3c-1.1-1.3-1.8-2.5-2.3-3.6c0.7-0.6,1.3-1.3,2-1.9c0.2-0.2,0.5-0.5,0.7-0.7c1.8-1.8,1.8-4.1,0-5.8
					l-2.3-2.3c-0.3-0.3-0.5-0.5-0.8-0.8c-0.5-0.5-1-1.1-1.6-1.6C9.6,2.7,8.7,2.3,7.6,2.3c-1,0-2,0.4-2.9,1.2l0,0L1.9,6.5
					C0.8,7.5,0.2,8.9,0,10.4c-0.2,2.5,0.5,4.8,1.1,6.3c1.4,3.7,3.4,7.1,6.5,10.8c3.7,4.4,8.2,7.9,13.3,10.4c1.9,0.9,4.5,2,7.4,2.2
					c0.2,0,0.4,0,0.5,0c2,0,3.6-0.7,4.9-2.1c0,0,0,0,0,0c0.4-0.5,0.9-1,1.5-1.5c0.4-0.3,0.7-0.7,1.1-1.1c0.8-0.9,1.3-1.9,1.3-2.9
					c0-1-0.4-2-1.3-2.9L31.6,24.8z M34.7,33.7c-0.3,0.4-0.7,0.7-1,1c-0.5,0.5-1.1,1.1-1.6,1.7c-0.9,0.9-1.9,1.3-3.2,1.3
					c-0.1,0-0.3,0-0.4,0c-2.5-0.2-4.8-1.1-6.6-2c-4.8-2.3-9-5.6-12.5-9.8c-2.9-3.5-4.8-6.7-6.1-10.1c-0.8-2.1-1.1-3.7-0.9-5.3
					c0.1-1,0.5-1.8,1.2-2.5l2.9-2.9c0.4-0.4,0.9-0.6,1.3-0.6c0.5,0,1,0.3,1.2,0.6c0,0,0,0,0,0c0.5,0.5,1,1,1.5,1.5
					C10.7,7,11,7.3,11.2,7.5l2.3,2.3c0.9,0.9,0.9,1.7,0,2.6c-0.2,0.2-0.5,0.5-0.7,0.7c-0.7,0.7-1.4,1.4-2.1,2.1c0,0,0,0,0,0
					c-0.7,0.7-0.6,1.4-0.4,1.9c0,0,0,0.1,0,0.1c0.6,1.4,1.4,2.8,2.7,4.4l0,0c2.3,2.9,4.8,5.1,7.5,6.8c0.4,0.2,0.7,0.4,1,0.6
					c0.3,0.2,0.6,0.3,0.8,0.5c0,0,0.1,0,0.1,0.1c0.3,0.1,0.6,0.2,0.8,0.2c0.7,0,1.1-0.4,1.3-0.6l2.9-2.9c0.3-0.3,0.8-0.6,1.3-0.6
					c0.5,0,1,0.3,1.2,0.6l0,0l4.7,4.6C35.5,31.9,35.5,32.8,34.7,33.7z"/>
			</g>
		</g>
		<g>
			<path d="M21.6,9.5c2.2,0.4,4.2,1.4,5.8,3c1.6,1.6,2.6,3.6,3,5.8c0.1,0.6,0.6,0.9,1.1,0.9c0.1,0,0.1,0,0.2,0
				c0.6-0.1,1-0.7,0.9-1.3c-0.5-2.7-1.7-5.1-3.7-7C27.1,9,24.7,7.7,22,7.3c-0.6-0.1-1.2,0.3-1.3,0.9C20.6,8.8,21,9.4,21.6,9.5z"/>
		</g>
		<g>
			<path d="M40,17.7c-0.8-4.4-2.8-8.4-6-11.6c-3.2-3.2-7.2-5.3-11.6-6C21.7-0.1,21.1,0.3,21,1c-0.1,0.6,0.3,1.2,0.9,1.3
				c3.9,0.7,7.5,2.5,10.4,5.4c2.9,2.9,4.7,6.4,5.4,10.4c0.1,0.6,0.6,0.9,1.1,0.9c0.1,0,0.1,0,0.2,0C39.7,18.9,40.1,18.3,40,17.7z"/>
		</g>
	</g>
</g>
</svg>
