<?xml version="1.0" encoding="utf-8"?>
<!-- Generator: Adobe Illustrator 16.0.0, SVG Export Plug-In . SVG Version: 6.00 Build 0)  -->
<!DOCTYPE svg PUBLIC "-//W3C//DTD SVG 1.1//EN" "http://www.w3.org/Graphics/SVG/1.1/DTD/svg11.dtd">
<svg version="1.1" id="Layer_1" xmlns="http://www.w3.org/2000/svg" xmlns:xlink="http://www.w3.org/1999/xlink" x="0px" y="0px"
	 width="40px" height="40px" viewBox="0 0 40 40" enable-background="new 0 0 40 40" xml:space="preserve">
<g>
	<path d="M37.4,38.6l-6.2-11.2c-0.1-0.2-0.3-0.4-0.6-0.5l-3.1-1.2l5.3-7.6c0,0,0,0,0-0.1c1.1-1.8,1.6-3.7,1.6-5.7
		c0-3.4-1.5-6.5-4.3-8.9C27.4,1.2,23.7,0,19.8,0C16,0,12.4,1.4,9.7,3.7C7,6,5.5,9.1,5.5,12.4c0,2,0.5,4,1.6,5.7c0,0,0,0,0,0.1
		l5.3,7.6L9.3,27c-0.3,0.1-0.5,0.3-0.6,0.5L2.6,38.6c-0.2,0.4-0.1,0.8,0.2,1.1c0.3,0.3,0.8,0.4,1.3,0.2l7.7-2.9l7.7,2.9
		c0.3,0.1,0.6,0.1,0.9,0l7.7-2.9l7.7,2.9C36,40,36.2,40,36.4,40c0.3,0,0.6-0.1,0.8-0.3C37.5,39.4,37.6,39,37.4,38.6z M9.1,17.2
		c-0.9-1.5-1.3-3.1-1.3-4.8c0-5.7,5.4-10.3,12-10.4c3.3,0,6.4,1,8.7,3c2.4,2,3.6,4.6,3.6,7.5c0,1.7-0.4,3.3-1.3,4.7L21,31.4
		c-0.3,0.4-0.8,0.5-1,0.5c-0.2,0-0.7,0-1-0.5L9.1,17.2z M28.7,35c-0.3-0.1-0.6-0.1-0.9,0L20,37.9L12.3,35c-0.3-0.1-0.6-0.1-0.9,0
		L6,37l4.6-8.4l2.9-1.1l3.4,4.9c0.6,0.9,1.7,1.4,3,1.4c1.2,0,2.3-0.5,3-1.4l3.4-4.9l2.9,1.1L34,37L28.7,35z"/>
	<path d="M24.1,14.2c0-1.9-1.8-3.5-4.1-3.5c-2.2,0-4.1,1.6-4.1,3.5c0,1.9,1.8,3.5,4.1,3.5C22.2,17.6,24.1,16.1,24.1,14.2z
		 M17.7,14.2c0-1.1,1-2,2.3-2c1.3,0,2.3,0.9,2.3,2c0,1.1-1,1.9-2.3,1.9C18.7,16.1,17.7,15.2,17.7,14.2z"/>
</g>
</svg>
