<?xml version="1.0" encoding="utf-8"?>
<!-- Generator: Adobe Illustrator 16.0.0, SVG Export Plug-In . SVG Version: 6.00 Build 0)  -->
<!DOCTYPE svg PUBLIC "-//W3C//DTD SVG 1.1//EN" "http://www.w3.org/Graphics/SVG/1.1/DTD/svg11.dtd">
<svg version="1.1" id="Layer_1" xmlns="http://www.w3.org/2000/svg" xmlns:xlink="http://www.w3.org/1999/xlink" x="0px" y="0px"
	 width="40px" height="40px" viewBox="0 0 40 40" enable-background="new 0 0 40 40" xml:space="preserve">
<g>
	<g>
		<g>
			<g>
				<path d="M39.7,16.6l-5.1-3.7V0.7c0-0.4-0.3-0.7-0.7-0.7H6.1C5.7,0,5.4,0.3,5.4,0.7v12.2l-5.1,3.7C0.1,16.7,0,16.9,0,17.2v22.1
					C0,39.7,0.3,40,0.7,40h38.7c0.4,0,0.7-0.3,0.7-0.7V17.2C40,16.9,39.9,16.7,39.7,16.6z M34.6,14.6l2.5,1.8h-2.5V14.6z M34.6,17.9
					h2.1l-2.1,1.2V17.9z M6.7,1.4h26.5v18.4l-11.1,6.3l-1.8-1.3c-0.2-0.2-0.5-0.2-0.7,0l-1.8,1.3L6.7,19.8V1.4z M5.4,14.6v1.8H2.9
					L5.4,14.6z M5.4,17.9v1.2l-2.1-1.2H5.4z M1.3,18.4l15.2,8.7L1.3,38V18.4z M2.9,38.6L20,26.3l17.1,12.2H2.9z M38.7,38L23.4,27.1
					l15.2-8.7V38z"/>
			</g>
		</g>
		<g>
			<g>
				<path d="M25.3,18.8c0.4,0,0.7-0.3,0.7-0.7c0-0.4-0.3-0.7-0.7-0.7H20c-2.5,0-4.6-2.2-4.6-5v-0.2c0-2.7,2.1-5,4.6-5s4.6,2.2,4.6,5
					v0.5c0,0.6-0.5,1.1-1,1.1c-0.6,0-1-0.5-1-1.1v-1c0-1.7-1.3-3.1-2.9-3.1s-2.9,1.4-2.9,3.1c0,1.7,1.3,3.1,2.9,3.1
					c0.7,0,1.4-0.3,1.9-0.8c0.4,0.7,1.2,1.2,2,1.2c1.3,0,2.3-1.1,2.3-2.5v-0.5c0-3.5-2.7-6.4-5.9-6.4c-3.3,0-5.9,2.9-5.9,6.4v0.2
					c0,3.5,2.7,6.4,5.9,6.4H25.3z M19.8,13.4c-0.8,0-1.5-0.8-1.5-1.7s0.7-1.7,1.5-1.7c0.8,0,1.5,0.7,1.5,1.7S20.6,13.4,19.8,13.4z"
					/>
			</g>
		</g>
	</g>
</g>
</svg>
